<svg xmlns="http://www.w3.org/2000/svg" viewBox="0 0 534.29 432.37"><defs><style>.cls-1{fill:#231f20;}.cls-1,.cls-2{stroke:#231f20;stroke-miterlimit:10;}.cls-2{fill:#fff;}</style></defs><g id="Layer_2" data-name="Layer 2"><g id="Layer_1-2" data-name="Layer 1"><path class="cls-1" d="M402.91,423.29c-35.13,12.09-68.71,10.42-99.34,1.06-31.73-9.69-65.56-8.76-97.49.26-66.23,18.71-144.79,1.16-182.15-51.92C-15.26,317-3.95,229.39,47.85,175.88c.84-.87,1.69-1.72,2.55-2.57C69.86,154.13,81.78,128.81,86,101.8,89.1,81.41,96.64,62.34,110.07,46,171.63-29,310.5,9.51,338.88,17.39c40.62,11.28,151.78,42.11,185.25,143C556.5,257.91,505.41,388,402.91,423.29Z"/><path class="cls-2" d="M481.15,161.7c0,86.67-22.29,257.43-109,257.43S65.1,302.86,65.1,216.18,173.82,13.24,260.49,13.24,481.15,75,481.15,161.7Z"/></g></g></svg>